<svg width="120" height="120" xmlns="http://www.w3.org/2000/svg">
  <defs>
    <linearGradient id="python-gradient" x1="0%" y1="0%" x2="100%" y2="100%">
      <stop offset="0%" stop-color="#3776ab"/>
      <stop offset="100%" stop-color="#ffde57"/>
    </linearGradient>
  </defs>
  <circle cx="60" cy="60" r="55" fill="url(#python-gradient)"/>
  <path d="M40,35 a1,1 0 0,1 40,0 v20 a1,1 0 0,1 -40,0 l0,-5 a1,1 0 0,1 30,0 v10 a1,1 0 0,1 -30,0" fill="white"/>
  <path d="M80,65 a1,1 0 0,1 -40,0 v20 a1,1 0 0,1 40,0 l0,-5 a1,1 0 0,1 -30,0 v-10 a1,1 0 0,1 30,0" fill="white"/>
</svg>
